Coordinates
version=1
nRows=11
nColumns=40
inDegrees=yes

Units are S.I. units (second, meters, Newtons, ...)
If the header above contains a line with 'inDegrees', this indicates whether rotational values are in degrees (yes) or radians (no).

endheader
time	pelvis_tilt	pelvis_list	pelvis_rotation	pelvis_tx	pelvis_ty	pelvis_tz	hip_flexion_r	hip_adduction_r	hip_rotation_r	knee_angle_r	knee_angle_r_beta	ankle_angle_r	subtalar_angle_r	mtp_angle_r	hip_flexion_l	hip_adduction_l	hip_rotation_l	knee_angle_l	knee_angle_l_beta	ankle_angle_l	subtalar_angle_l	mtp_angle_l	lumbar_extension	lumbar_bending	lumbar_rotation	arm_flex_r	arm_add_r	arm_rot_r	elbow_flex_r	pro_sup_r	wrist_flex_r	wrist_dev_r	arm_flex_l	arm_add_l	arm_rot_l	elbow_flex_l	pro_sup_l	wrist_flex_l	wrist_dev_l
     22.43000000	    -85.79891162	     65.05958475	    -89.94921137	      0.84090134	      0.60985625	     -0.30327730	     45.00000012	     -9.99999999	      0.00000000	     60.00014062	      1.04720001	     -4.99999985	      0.00000000	      0.00000000	     45.00000012	     -9.99999999	      0.00000000	     60.00014062	      1.04720001	     -4.99999985	      0.00000000	      0.00000000	     66.71888023	     86.18053359	    -87.71454932	      2.87800038	    -32.59144595	     34.57041307	     85.70586858	     87.17048902	      0.00000000	      0.00000000	      1.28717666	    -24.00851016	     24.32071510	     76.41842869	     89.07289991	      0.00000000	      0.00000000
     22.43500000	    -85.63570515	     65.06727402	    -89.94877428	      0.84085836	      0.60947886	     -0.30312710	     45.00000012	     -9.99999999	      0.00000000	     60.00014062	      1.04720001	     -4.99999985	      0.00000000	      0.00000000	     45.00000012	     -9.99999999	      0.00000000	     60.00014062	      1.04720001	     -4.99999985	      0.00000000	      0.00000000	     67.14196161	     86.00472772	    -88.03749529	      2.69529875	    -32.62192346	     34.34454763	     85.81756858	     87.29287384	      0.00000000	      0.00000000	      1.40361306	    -23.99467908	     24.53293190	     76.33270200	     89.06560584	      0.00000000	      0.00000000
     22.44000000	    -85.72502178	     65.02245731	    -89.94901362	      0.84084664	      0.60966802	     -0.30309988	     45.00000012	     -9.99999999	      0.00000000	     60.00014062	      1.04720001	     -4.99999985	      0.00000000	      0.00000000	     45.00000012	     -9.99999999	      0.00000000	     60.00014062	      1.04720001	     -4.99999985	      0.00000000	      0.00000000	     66.93412245	     86.09990762	    -87.93824120	      2.81025455	    -32.61619902	     34.51560226	     85.77435532	     87.15819738	      0.00000000	      0.00000000	      1.31968485	    -24.00076300	     24.38527900	     76.39977589	     89.06407932	      0.00000000	      0.00000000
     22.44500000	    -85.61952761	     64.94236087	    -89.94919334	      0.84081144	      0.60944313	     -0.30290077	     45.00000012	     -9.99999999	      0.00000000	     60.00014062	      1.04720001	     -4.99999985	      0.00000000	      0.00000000	     45.00000012	     -9.99999999	      0.00000000	     60.00014062	      1.04720001	     -4.99999985	      0.00000000	      0.00000000	     66.92960244	     85.99067701	    -87.96020784	      2.71052549	    -32.61369704	     34.36485258	     85.79262103	     87.38107625	      0.00000000	      0.00000000	      1.40383667	    -24.00106829	     24.52685596	     76.31804506	     89.06590769	      0.00000000	      0.00000000
     22.45000000	    -85.60763440	     65.06195220	    -89.94882328	      0.84084121	      0.60937170	     -0.30308046	     45.00000012	     -9.99999999	      0.00000000	     60.00014062	      1.04720001	     -4.99999985	      0.00000000	      0.00000000	     45.00000012	     -9.99999999	      0.00000000	     60.00014062	      1.04720001	     -4.99999985	      0.00000000	      0.00000000	     67.15221849	     85.97159111	    -88.05798220	      2.69706478	    -32.63328214	     34.36535649	     85.82005278	     87.24531028	      0.00000000	      0.00000000	      1.39795804	    -23.99720928	     24.53752484	     76.34501130	     89.06170579	      0.00000000	      0.00000000
     22.45500000	    -85.64049891	     64.98226417	    -89.94913318	      0.84084517	      0.60944570	     -0.30299534	     45.00000012	     -9.99999999	      0.00000000	     60.00014062	      1.04720001	     -4.99999985	      0.00000000	      0.00000000	     45.00000012	     -9.99999999	      0.00000000	     60.00014062	      1.04720001	     -4.99999985	      0.00000000	      0.00000000	     66.93155446	     86.01526301	    -87.96275242	      2.78111493	    -32.60587117	     34.45923844	     85.76203776	     87.29063018	      0.00000000	      0.00000000	      1.34603421	    -23.99951169	     24.43279103	     76.36929094	     89.06341303	      0.00000000	      0.00000000
     22.46000000	    -85.62122698	     65.02622174	    -89.94904046	      0.84083761	      0.60936613	     -0.30303821	     45.00000012	     -9.99999999	      0.00000000	     60.00014062	      1.04720001	     -4.99999985	      0.00000000	      0.00000000	     45.00000012	     -9.99999999	      0.00000000	     60.00014062	      1.04720001	     -4.99999985	      0.00000000	      0.00000000	     67.03867918	     85.98980970	    -88.01431870	      2.73528127	    -32.62463750	     34.43699353	     85.77781417	     87.24629395	      0.00000000	      0.00000000	      1.34025364	    -23.98960894	     24.43730486	     76.38157677	     89.06437236	      0.00000000	      0.00000000
     22.46500000	    -85.67954842	     65.00953254	    -89.94906018	      0.84082434	      0.60949055	     -0.30304688	     45.00000012	     -9.99999999	      0.00000000	     60.00014062	      1.04720001	     -4.99999985	      0.00000000	      0.00000000	     45.00000012	     -9.99999999	      0.00000000	     60.00014062	      1.04720001	     -4.99999985	      0.00000000	      0.00000000	     66.98654710	     86.04750726	    -87.99052162	      2.75735375	    -32.60465230	     34.45342637	     85.76696354	     87.21697917	      0.00000000	      0.00000000	      1.33101372	    -23.99979155	     24.41883604	     76.38412369	     89.06395755	      0.00000000	      0.00000000
     22.47000000	    -85.76841254	     65.02804492	    -89.94922095	      0.84087593	      0.60962615	     -0.30315292	     45.00000012	     -9.99999999	      0.00000000	     60.00014062	      1.04720001	     -4.99999985	      0.00000000	      0.00000000	     45.00000012	     -9.99999999	      0.00000000	     60.00014062	      1.04720001	     -4.99999985	      0.00000000	      0.00000000	     66.76608042	     86.14883988	    -87.78349265	      2.79514661	    -32.59871433	     34.49663025	     85.76659805	     87.11904507	      0.00000000	      0.00000000	      1.26730131	    -24.02314862	     24.32123030	     76.50381580	     89.07583574	      0.00000000	      0.00000000
     22.47500000	    -85.67423577	     64.93677623	    -89.94933979	      0.84078776	      0.60943396	     -0.30291124	     45.00000012	     -9.99999999	      0.00000000	     60.00014062	      1.04720001	     -4.99999985	      0.00000000	      0.00000000	     45.00000012	     -9.99999999	      0.00000000	     60.00014062	      1.04720001	     -4.99999985	      0.00000000	      0.00000000	     66.81238354	     86.04795234	    -87.90434226	      2.75865886	    -32.59644416	     34.45859024	     85.76152048	     87.27248383	      0.00000000	      0.00000000	      1.29508254	    -24.00246312	     24.36210225	     76.43250003	     89.06785144	      0.00000000	      0.00000000
     22.48000000	    -85.61200572	     64.98694214	    -89.94918365	      0.84084316	      0.60932571	     -0.30295868	     45.00000012	     -9.99999999	      0.00000000	     60.00014062	      1.04720001	     -4.99999985	      0.00000000	      0.00000000	     45.00000012	     -9.99999999	      0.00000000	     60.00014062	      1.04720001	     -4.99999985	      0.00000000	      0.00000000	     67.05569552	     85.98250469	    -88.04318777	      2.66276897	    -32.59581383	     34.30117459	     85.79732802	     87.29346281	      0.00000000	      0.00000000	      1.38824092	    -23.99366430	     24.49095697	     76.33541615	     89.06685390	      0.00000000	      0.00000000
